<svg width="48" height="48" viewBox="0 0 48 48" fill="none" xmlns="http://www.w3.org/2000/svg">
<path d="M37.1722 0.959974L24.0001 14.287L10.828 0.959974C9.71174 -0.169438 7.98151 -0.169438 6.86523 0.959974L1.33965 6.55056C0.223372 7.67997 0.223372 9.43056 1.33965 10.56L14.5117 23.887L1.33965 37.2141C0.223372 38.3435 0.223372 40.0941 1.33965 41.2235L6.86523 46.8141C7.98151 47.9435 9.71174 47.9435 10.828 46.8141L24.0001 33.487L37.1722 46.8141C38.2885 47.9435 40.0187 47.9435 41.135 46.8141L46.6606 41.2235C47.7769 40.0941 47.7769 38.3435 46.6606 37.2141L33.4885 23.887L46.6606 10.56C47.7769 9.43056 47.7769 7.67997 46.6606 6.55056L41.135 0.959974C40.0745 -0.169438 38.2885 -0.169438 37.1722 0.959974Z" fill="#E13834"/>
</svg>
