<svg width="48" height="48" viewBox="0 0 48 48" fill="none" xmlns="http://www.w3.org/2000/svg">
<path d="M46.9369 10.92L42.1369 15.72L32.2798 5.86287L37.0798 1.06287C37.3253 0.81783 37.6167 0.623579 37.9373 0.491214C38.2579 0.358848 38.6015 0.290962 38.9484 0.291437C39.2961 0.285097 39.6414 0.350304 39.9628 0.48301C40.2842 0.615715 40.575 0.813086 40.8169 1.06287L46.9369 7.18286C47.182 7.42838 47.3762 7.71977 47.5086 8.04039C47.6409 8.36101 47.7088 8.70457 47.7084 9.05144C47.7147 9.39914 47.6495 9.74443 47.5168 10.0659C47.3841 10.3873 47.1867 10.678 46.9369 10.92V10.92Z" fill="#3E6C61"/>
<path d="M0.29126 37.8343L29.4341 8.70862L39.2913 18.5658L10.1655 47.7086H0.29126V37.8343Z" fill="#3E6C61"/>
</svg>
